# xmcd
#
# Track frame offsets:
#	150
#	15587
#	33759
#	49703
#	61785
#	74905
#	88484
#	103799
#	119556
#	134085
#	150485
#	167412
#	183686
#	197261
#	212570
#	230105
#	243747
#	258539
#	273258
#	287960
#	300405
#	313077
#
# Disc length: 4392 seconds
#
# Revision: 3
# Processed by: cddbd v1.5.2PL0 Copyright (c) Steve Scherf et al.
# Submitted via: EZCDAudioConverter 3.1.5.1
#
DISCID=4a112616
DTITLE=Πασχάλης Τερζής - Αυτά Είναι Τα Τραγούδια Μου
DYEAR=1996
DGENRE=laika
TTITLE0=\nΑυτά Είναι Τα Τραγούδια Μου
TTITLE1=Τυπική Διαδικασία
TTITLE2=Ο,Τι Θες Με Κάνεις
TTITLE3=Φαντασία Μου Πλανεύτρα
TTITLE4=Μίλα Μου Στο Ενικό
TTITLE5=Είμαι Μόνος Μου
TTITLE6=Είναι Σκάρτη (Remix)
TTITLE7=Θα 'Θελα Να Σουν Εδώ
TTITLE8=Λέω
TTITLE9=Τι Να Κάνω Πές Μου
TTITLE10=Πληρώνω
TTITLE11=Άστατος
TTITLE12=Άλλη Μια Φορά
TTITLE13=Οποιος Τολμήσει
TTITLE14=Εμένα Μόνο
TTITLE15=Μια Διαδρομή
TTITLE16=Θα Το Σβήσω Το Φεγγάρι
TTITLE17=Αγάπη Που ΄γινες Φωτιά
TTITLE18=Μεσόγειος
TTITLE19=ω
TTITLE20=Του Βοριά Ο Γιός
TTITLE21=Μα Τι Σου Λέω
EXTD=
EXTT0=
EXTT1=
EXTT2=
EXTT3=
EXTT4=
EXTT5=
EXTT6=
EXTT7=
EXTT8=
EXTT9=
EXTT10=
EXTT11=
EXTT12=
EXTT13=
EXTT14=
EXTT15=
EXTT16=
EXTT17=
EXTT18=
EXTT19=
EXTT20=
EXTT21=
PLAYORDER=
